<?xml version="1.0" encoding="UTF-8"?>
<svg xmlns="http://www.w3.org/2000/svg" xmlns:xlink="http://www.w3.org/1999/xlink" width="50px" height="50px" viewBox="0 0 50 50" version="1.1">
<g id="surface1">
<path style=" stroke:none;fill-rule:nonzero;fill:rgb(13.333333%,13.333333%,13.333333%);fill-opacity:1;" d="M 0 0 L 49.996094 0 L 49.996094 49.996094 L 0 49.996094 Z M 0 0 "/>
<path style=" stroke:none;fill-rule:nonzero;fill:rgb(0%,84.705882%,100%);fill-opacity:1;" d="M 29.140625 24.96875 C 29.140625 27.277344 27.265625 29.148438 24.957031 29.148438 C 22.648438 29.148438 20.777344 27.277344 20.777344 24.96875 C 20.777344 22.65625 22.648438 20.785156 24.957031 20.785156 C 27.265625 20.785156 29.140625 22.65625 29.140625 24.96875 Z M 29.140625 24.96875 "/>
<path style="fill:none;stroke-width:144.7456;stroke-linecap:butt;stroke-linejoin:miter;stroke:rgb(0%,84.705882%,100%);stroke-opacity:1;stroke-miterlimit:10;" d="M 1806.389922 1192.008125 C 2212.679219 1192.008125 2590.129609 1250.251406 2874.560391 1348.0775 C 3217.517187 1465.977734 3428.154297 1644.948594 3428.154297 1806.955391 C 3428.154297 1975.747812 3204.794141 2166.028047 2836.673984 2287.886562 C 2558.463359 2380.057969 2192.039609 2428.122812 1806.389922 2428.122812 C 1411.127266 2428.122812 1036.786953 2382.885313 755.183516 2286.755625 C 399.220937 2165.179844 184.625547 1972.637734 184.625547 1806.955391 C 184.625547 1646.362266 385.932422 1468.805078 724.082734 1350.904844 C 1009.644453 1251.382344 1396.425078 1192.008125 1806.389922 1192.008125 Z M 1806.389922 1192.008125 " transform="matrix(0.013816,0,0,0.013816,0,0)"/>
<path style="fill:none;stroke-width:144.7456;stroke-linecap:butt;stroke-linejoin:miter;stroke:rgb(0%,84.705882%,100%);stroke-opacity:1;stroke-miterlimit:10;" d="M 1270.891016 1501.319531 C 1473.894297 1149.315234 1713.087578 851.595937 1940.123281 653.964609 C 2213.527422 416.185 2473.925781 322.882656 2614.162031 403.744687 C 2760.335703 487.999531 2813.489766 776.671328 2735.172344 1156.383594 C 2675.798125 1443.641719 2534.713672 1784.902109 2341.888828 2119.094141 C 2144.540234 2461.485469 1918.352734 2763.163047 1694.427109 2959.097969 C 1411.127266 3206.773281 1137.157656 3296.400078 993.811328 3213.558906 C 854.423281 3133.262344 801.269219 2870.319375 867.994531 2518.597812 C 924.258672 2221.16125 1065.908594 1856.716641 1270.891016 1501.319531 Z M 1270.891016 1501.319531 " transform="matrix(0.013816,0,0,0.013816,0,0)"/>
<path style="fill:none;stroke-width:144.7456;stroke-linecap:butt;stroke-linejoin:miter;stroke:rgb(0%,84.705882%,100%);stroke-opacity:1;stroke-miterlimit:10;" d="M 1271.456484 2119.659609 C 1067.887734 1768.220781 929.347891 1412.540937 871.670078 1117.083516 C 802.117422 761.403672 851.313203 489.130469 991.266719 407.985703 C 1137.440391 323.448125 1413.954609 421.556953 1704.040078 679.127969 C 1923.159219 873.931953 2148.215781 1166.562031 2341.606094 1500.471328 C 2539.520156 1842.579922 2688.238437 2189.212266 2745.91625 2480.994141 C 2818.861719 2849.9625 2759.770234 3132.131406 2616.423906 3214.972578 C 2477.318594 3295.551875 2222.857656 3210.448828 1951.432656 2976.910234 C 1722.417812 2779.561641 1477.004375 2474.773984 1271.456484 2119.659609 Z M 1271.456484 2119.659609 " transform="matrix(0.013816,0,0,0.013816,0,0)"/>
</g>
</svg>
